<?xml version="1.0" encoding="UTF-8" standalone="no"?><svg xmlns="http://www.w3.org/2000/svg" xmlns:xlink="http://www.w3.org/1999/xlink" contentScriptType="application/ecmascript" contentStyleType="text/css" height="688px" preserveAspectRatio="none" style="width:1073px;height:688px;background:#FFFFFF;" version="1.1" viewBox="0 0 1073 688" width="1073px" zoomAndPan="magnify"><defs><linearGradient id="g1v8vhadbmdz810" x1="50%" x2="50%" y1="0%" y2="100%"><stop offset="0%" stop-color="#00FFFF"/><stop offset="100%" stop-color="#5F9EA0"/></linearGradient><filter height="300%" id="f1v8vhadbmdz81" width="300%" x="-1" y="-1"><feGaussianBlur result="blurOut" stdDeviation="2.0"/><feColorMatrix in="blurOut" result="blurOut2" type="matrix" values="0 0 0 0 0 0 0 0 0 0 0 0 0 0 0 0 0 0 .4 0"/><feOffset dx="4.0" dy="4.0" in="blurOut2" result="blurOut3"/><feBlend in="SourceGraphic" in2="blurOut3" mode="normal"/></filter></defs><g><rect fill="url(#g1v8vhadbmdz810)" height="31.1992" rx="7.5" ry="7.5" style="stroke:#FF0000;stroke-width:2.0;" width="297" x="381" y="2"/><text fill="#000000" font-family="sans-serif" font-size="18" lengthAdjust="spacing" textLength="281" x="389" y="24.4023">ReadKeeper Book Class Diagram</text><!--MD5=[65b96b4cfbfa9b7840dc9ef84be91df9]
class BookInfo--><rect codeLine="6" fill="#FEFECE" filter="url(#f1v8vhadbmdz81)" height="125.7305" id="BookInfo" style="stroke:#A80036;stroke-width:1.5;" width="98" x="246.5" y="43.1992"/><ellipse cx="269.15" cy="59.1992" fill="#ADD1B2" rx="11" ry="11" style="stroke:#A80036;stroke-width:1.0;"/><path d="M271.6231,65.3423 Q271.0421,65.6411 270.4029,65.7905 Q269.7638,65.9399 269.0582,65.9399 Q266.5514,65.9399 265.2315,64.2881 Q263.9117,62.6362 263.9117,59.5151 Q263.9117,56.3857 265.2315,54.7339 Q266.5514,53.082 269.0582,53.082 Q269.7638,53.082 270.4112,53.2314 Q271.0587,53.3809 271.6231,53.6797 L271.6231,56.4023 Q270.9923,55.8213 270.3988,55.5515 Q269.8053,55.2817 269.1744,55.2817 Q267.8297,55.2817 267.1449,56.3484 Q266.4601,57.415 266.4601,59.5151 Q266.4601,61.6069 267.1449,62.6736 Q267.8297,63.7402 269.1744,63.7402 Q269.8053,63.7402 270.3988,63.4705 Q270.9923,63.2007 271.6231,62.6196 Z " fill="#000000"/><text fill="#000000" font-family="sans-serif" font-size="12" lengthAdjust="spacing" textLength="49" x="284.85" y="63.7344">BookInfo</text><line style="stroke:#A80036;stroke-width:1.5;" x1="247.5" x2="343.5" y1="75.1992" y2="75.1992"/><text fill="#000000" font-family="sans-serif" font-size="11" lengthAdjust="spacing" textLength="58" x="252.5" y="89.834">title: String</text><text fill="#000000" font-family="sans-serif" font-size="11" lengthAdjust="spacing" textLength="86" x="252.5" y="102.7891">imageUrl: String</text><text fill="#000000" font-family="sans-serif" font-size="11" lengthAdjust="spacing" textLength="74" x="252.5" y="115.7441">author: String</text><text fill="#000000" font-family="sans-serif" font-size="11" lengthAdjust="spacing" textLength="52" x="252.5" y="128.6992">pages: Int</text><text fill="#000000" font-family="sans-serif" font-size="11" lengthAdjust="spacing" textLength="76" x="252.5" y="141.6543">rating: Double</text><text fill="#000000" font-family="sans-serif" font-size="11" lengthAdjust="spacing" textLength="65" x="252.5" y="154.6094">pubYear: Int</text><line style="stroke:#A80036;stroke-width:1.5;" x1="247.5" x2="343.5" y1="160.9297" y2="160.9297"/><!--MD5=[0da38061b4eff8c06799b8d6b86b66b6]
class TimeInfo--><rect codeLine="14" fill="#FEFECE" filter="url(#f1v8vhadbmdz81)" height="73.9102" id="TimeInfo" style="stroke:#A80036;stroke-width:1.5;" width="136" x="48.5" y="229.1992"/><ellipse cx="87.8" cy="245.1992" fill="#ADD1B2" rx="11" ry="11" style="stroke:#A80036;stroke-width:1.0;"/><path d="M90.2731,251.3423 Q89.6921,251.6411 89.0529,251.7905 Q88.4138,251.9399 87.7082,251.9399 Q85.2014,251.9399 83.8815,250.2881 Q82.5617,248.6362 82.5617,245.5151 Q82.5617,242.3857 83.8815,240.7339 Q85.2014,239.082 87.7082,239.082 Q88.4138,239.082 89.0612,239.2314 Q89.7087,239.3809 90.2731,239.6797 L90.2731,242.4023 Q89.6423,241.8213 89.0488,241.5515 Q88.4553,241.2817 87.8244,241.2817 Q86.4797,241.2817 85.7949,242.3484 Q85.1101,243.415 85.1101,245.5151 Q85.1101,247.6069 85.7949,248.6736 Q86.4797,249.7402 87.8244,249.7402 Q88.4553,249.7402 89.0488,249.4705 Q89.6423,249.2007 90.2731,248.6196 Z " fill="#000000"/><text fill="#000000" font-family="sans-serif" font-size="12" lengthAdjust="spacing" textLength="50" x="107.2" y="249.7344">TimeInfo</text><line style="stroke:#A80036;stroke-width:1.5;" x1="49.5" x2="183.5" y1="261.1992" y2="261.1992"/><text fill="#000000" font-family="sans-serif" font-size="11" lengthAdjust="spacing" textLength="124" x="54.5" y="275.834">addedTime: Timestamp</text><text fill="#000000" font-family="sans-serif" font-size="11" lengthAdjust="spacing" textLength="124" x="54.5" y="288.7891">editedTime: Timestamp</text><line style="stroke:#A80036;stroke-width:1.5;" x1="49.5" x2="183.5" y1="295.1094" y2="295.1094"/><!--MD5=[6748d860bd26e3ac80fb65f4a298f41a]
class ReadingPlatform--><rect codeLine="18" fill="#FEFECE" filter="url(#f1v8vhadbmdz81)" height="138.6855" id="ReadingPlatform" style="stroke:#A80036;stroke-width:1.5;" width="127" x="460" y="363.1992"/><ellipse cx="475" cy="379.1992" fill="#EB937F" rx="11" ry="11" style="stroke:#A80036;stroke-width:1.0;"/><path d="M478.6143,385.6992 L470.8945,385.6992 L470.8945,373.3062 L478.6143,373.3062 L478.6143,375.4644 L473.3433,375.4644 L473.3433,378.1372 L478.1162,378.1372 L478.1162,380.2954 L473.3433,380.2954 L473.3433,383.541 L478.6143,383.541 Z " fill="#000000"/><text fill="#000000" font-family="sans-serif" font-size="12" lengthAdjust="spacing" textLength="95" x="489" y="383.7344">ReadingPlatform</text><line style="stroke:#A80036;stroke-width:1.5;" x1="461" x2="586" y1="395.1992" y2="395.1992"/><text fill="#000000" font-family="sans-serif" font-size="11" lengthAdjust="spacing" textLength="30" x="466" y="409.834">Paper</text><text fill="#000000" font-family="sans-serif" font-size="11" lengthAdjust="spacing" textLength="20" x="466" y="422.7891">PDF</text><text fill="#000000" font-family="sans-serif" font-size="11" lengthAdjust="spacing" textLength="68" x="466" y="435.7441">Apple_BOOK</text><text fill="#000000" font-family="sans-serif" font-size="11" lengthAdjust="spacing" textLength="46" x="466" y="448.6992">WECHAT</text><text fill="#000000" font-family="sans-serif" font-size="11" lengthAdjust="spacing" textLength="38" x="466" y="461.6543">KINDLE</text><text fill="#000000" font-family="sans-serif" font-size="11" lengthAdjust="spacing" textLength="46" x="466" y="474.6094">GOOGLE</text><text fill="#000000" font-family="sans-serif" font-size="11" lengthAdjust="spacing" textLength="49" x="466" y="487.5645">GENERAL</text><line style="stroke:#A80036;stroke-width:1.5;" x1="461" x2="586" y1="493.8848" y2="493.8848"/><!--MD5=[189c1a3f7d47d82d867dbb3bf9bea45f]
class PageFormat--><rect codeLine="27" fill="#FEFECE" filter="url(#f1v8vhadbmdz81)" height="73.9102" id="PageFormat" style="stroke:#A80036;stroke-width:1.5;" width="100" x="622.5" y="395.6992"/><ellipse cx="637.5" cy="411.6992" fill="#EB937F" rx="11" ry="11" style="stroke:#A80036;stroke-width:1.0;"/><path d="M641.1143,418.1992 L633.3945,418.1992 L633.3945,405.8062 L641.1143,405.8062 L641.1143,407.9644 L635.8433,407.9644 L635.8433,410.6372 L640.6162,410.6372 L640.6162,412.7954 L635.8433,412.7954 L635.8433,416.041 L641.1143,416.041 Z " fill="#000000"/><text fill="#000000" font-family="sans-serif" font-size="12" lengthAdjust="spacing" textLength="68" x="651.5" y="416.2344">PageFormat</text><line style="stroke:#A80036;stroke-width:1.5;" x1="623.5" x2="721.5" y1="427.6992" y2="427.6992"/><text fill="#000000" font-family="sans-serif" font-size="11" lengthAdjust="spacing" textLength="28" x="628.5" y="442.334">PAGE</text><text fill="#000000" font-family="sans-serif" font-size="11" lengthAdjust="spacing" textLength="70" x="628.5" y="455.2891">PERCENTAGE</text><line style="stroke:#A80036;stroke-width:1.5;" x1="623.5" x2="721.5" y1="461.6094" y2="461.6094"/><!--MD5=[42504f0bcf198c14b5ad949e7437150f]
class ReadingRecord--><rect codeLine="31" fill="#FEFECE" filter="url(#f1v8vhadbmdz81)" height="86.8652" id="ReadingRecord" style="stroke:#A80036;stroke-width:1.5;" width="133" x="758" y="389.1992"/><ellipse cx="778.85" cy="405.1992" fill="#ADD1B2" rx="11" ry="11" style="stroke:#A80036;stroke-width:1.0;"/><path d="M781.3231,411.3423 Q780.7421,411.6411 780.1029,411.7905 Q779.4638,411.9399 778.7582,411.9399 Q776.2514,411.9399 774.9315,410.2881 Q773.6117,408.6362 773.6117,405.5151 Q773.6117,402.3857 774.9315,400.7339 Q776.2514,399.082 778.7582,399.082 Q779.4638,399.082 780.1112,399.2314 Q780.7587,399.3809 781.3231,399.6797 L781.3231,402.4023 Q780.6923,401.8213 780.0988,401.5515 Q779.5053,401.2817 778.8744,401.2817 Q777.5297,401.2817 776.8449,402.3484 Q776.1601,403.415 776.1601,405.5151 Q776.1601,407.6069 776.8449,408.6736 Q777.5297,409.7402 778.8744,409.7402 Q779.5053,409.7402 780.0988,409.4705 Q780.6923,409.2007 781.3231,408.6196 Z " fill="#000000"/><text fill="#000000" font-family="sans-serif" font-size="12" lengthAdjust="spacing" textLength="88" x="794.15" y="409.7344">ReadingRecord</text><line style="stroke:#A80036;stroke-width:1.5;" x1="759" x2="890" y1="421.1992" y2="421.1992"/><text fill="#000000" font-family="sans-serif" font-size="11" lengthAdjust="spacing" textLength="70" x="764" y="435.834">startPage: Int</text><text fill="#000000" font-family="sans-serif" font-size="11" lengthAdjust="spacing" textLength="65" x="764" y="448.7891">endPage: Int</text><text fill="#000000" font-family="sans-serif" font-size="11" lengthAdjust="spacing" textLength="121" x="764" y="461.7441">timestamp: Timestamp</text><line style="stroke:#A80036;stroke-width:1.5;" x1="759" x2="890" y1="468.0645" y2="468.0645"/><!--MD5=[249e934c5374752813fee4ecf5dffc04]
class ReadingNote--><rect codeLine="36" fill="#FEFECE" filter="url(#f1v8vhadbmdz81)" height="86.8652" id="ReadingNote" style="stroke:#A80036;stroke-width:1.5;" width="133" x="926" y="389.1992"/><ellipse cx="953.15" cy="405.1992" fill="#ADD1B2" rx="11" ry="11" style="stroke:#A80036;stroke-width:1.0;"/><path d="M955.6231,411.3423 Q955.0421,411.6411 954.4029,411.7905 Q953.7638,411.9399 953.0582,411.9399 Q950.5514,411.9399 949.2315,410.2881 Q947.9117,408.6362 947.9117,405.5151 Q947.9117,402.3857 949.2315,400.7339 Q950.5514,399.082 953.0582,399.082 Q953.7638,399.082 954.4112,399.2314 Q955.0587,399.3809 955.6231,399.6797 L955.6231,402.4023 Q954.9923,401.8213 954.3988,401.5515 Q953.8053,401.2817 953.1744,401.2817 Q951.8297,401.2817 951.1449,402.3484 Q950.4601,403.415 950.4601,405.5151 Q950.4601,407.6069 951.1449,408.6736 Q951.8297,409.7402 953.1744,409.7402 Q953.8053,409.7402 954.3988,409.4705 Q954.9923,409.2007 955.6231,408.6196 Z " fill="#000000"/><text fill="#000000" font-family="sans-serif" font-size="12" lengthAdjust="spacing" textLength="74" x="969.85" y="409.7344">ReadingNote</text><line style="stroke:#A80036;stroke-width:1.5;" x1="927" x2="1058" y1="421.1992" y2="421.1992"/><text fill="#000000" font-family="sans-serif" font-size="11" lengthAdjust="spacing" textLength="62" x="932" y="435.834">note: String</text><text fill="#000000" font-family="sans-serif" font-size="11" lengthAdjust="spacing" textLength="64" x="932" y="448.7891">position: Int</text><text fill="#000000" font-family="sans-serif" font-size="11" lengthAdjust="spacing" textLength="121" x="932" y="461.7441">timestamp: Timestamp</text><line style="stroke:#A80036;stroke-width:1.5;" x1="927" x2="1058" y1="468.0645" y2="468.0645"/><!--MD5=[62f27b4dd3d7f493572c3eaa4b5fb7a4]
class EditableBook--><rect codeLine="41" fill="#FEFECE" filter="url(#f1v8vhadbmdz81)" height="73.9102" id="EditableBook" style="stroke:#A80036;stroke-width:1.5;" width="109" x="62" y="395.6992"/><ellipse cx="77.9" cy="411.6992" fill="#B4A7E5" rx="11" ry="11" style="stroke:#A80036;stroke-width:1.0;"/><path d="M74.3277,407.9644 L74.3277,405.8062 L81.7071,405.8062 L81.7071,407.9644 L79.2418,407.9644 L79.2418,416.041 L81.7071,416.041 L81.7071,418.1992 L74.3277,418.1992 L74.3277,416.041 L76.7931,416.041 L76.7931,407.9644 Z " fill="#000000"/><text fill="#000000" font-family="sans-serif" font-size="12" font-style="italic" lengthAdjust="spacing" textLength="75" x="92.1" y="416.2344">EditableBook</text><line style="stroke:#A80036;stroke-width:1.5;" x1="63" x2="170" y1="427.6992" y2="427.6992"/><text fill="#000000" font-family="sans-serif" font-size="11" lengthAdjust="spacing" textLength="97" x="68" y="442.334">timeInfo: TimeInfo</text><text fill="#000000" font-family="sans-serif" font-size="11" lengthAdjust="spacing" textLength="85" x="68" y="455.2891">category: String</text><line style="stroke:#A80036;stroke-width:1.5;" x1="63" x2="170" y1="461.6094" y2="461.6094"/><!--MD5=[84e3a5e42879fb3231104d3c8e592439]
class Book--><rect codeLine="46" fill="#FEFECE" filter="url(#f1v8vhadbmdz81)" height="60.9551" id="Book" style="stroke:#A80036;stroke-width:1.5;" width="113" x="239" y="235.6992"/><ellipse cx="277.85" cy="251.6992" fill="#B4A7E5" rx="11" ry="11" style="stroke:#A80036;stroke-width:1.0;"/><path d="M274.2777,247.9644 L274.2777,245.8062 L281.6571,245.8062 L281.6571,247.9644 L279.1918,247.9644 L279.1918,256.041 L281.6571,256.041 L281.6571,258.1992 L274.2777,258.1992 L274.2777,256.041 L276.7431,256.041 L276.7431,247.9644 Z " fill="#000000"/><text fill="#000000" font-family="sans-serif" font-size="12" font-style="italic" lengthAdjust="spacing" textLength="28" x="297.15" y="256.2344">Book</text><line style="stroke:#A80036;stroke-width:1.5;" x1="240" x2="351" y1="267.6992" y2="267.6992"/><text fill="#000000" font-family="sans-serif" font-size="11" lengthAdjust="spacing" textLength="101" x="245" y="282.334">bookInfo: BookInfo</text><line style="stroke:#A80036;stroke-width:1.5;" x1="240" x2="351" y1="288.6543" y2="288.6543"/><!--MD5=[b52bcf1538ee676eb0255b7a62632f8b]
class ReadingBook--><rect codeLine="60" fill="#FEFECE" filter="url(#f1v8vhadbmdz81)" height="112.7754" id="ReadingBook" style="stroke:#A80036;stroke-width:1.5;" width="178" x="583.5" y="562.1992"/><ellipse cx="630.75" cy="578.1992" fill="#ADD1B2" rx="11" ry="11" style="stroke:#A80036;stroke-width:1.0;"/><path d="M633.2231,584.3423 Q632.6421,584.6411 632.0029,584.7905 Q631.3638,584.9399 630.6582,584.9399 Q628.1514,584.9399 626.8315,583.2881 Q625.5117,581.6362 625.5117,578.5151 Q625.5117,575.3857 626.8315,573.7339 Q628.1514,572.082 630.6582,572.082 Q631.3638,572.082 632.0112,572.2314 Q632.6587,572.3809 633.2231,572.6797 L633.2231,575.4023 Q632.5923,574.8213 631.9988,574.5515 Q631.4053,574.2817 630.7744,574.2817 Q629.4297,574.2817 628.7449,575.3484 Q628.0601,576.415 628.0601,578.5151 Q628.0601,580.6069 628.7449,581.6736 Q629.4297,582.7402 630.7744,582.7402 Q631.4053,582.7402 631.9988,582.4705 Q632.5923,582.2007 633.2231,581.6196 Z " fill="#000000"/><text fill="#000000" font-family="sans-serif" font-size="12" lengthAdjust="spacing" textLength="75" x="651.25" y="582.7344">ReadingBook</text><line style="stroke:#A80036;stroke-width:1.5;" x1="584.5" x2="760.5" y1="594.1992" y2="594.1992"/><text fill="#000000" font-family="sans-serif" font-size="11" lengthAdjust="spacing" textLength="140" x="589.5" y="608.834">platform: ReadingPlatform</text><text fill="#000000" font-family="sans-serif" font-size="11" lengthAdjust="spacing" textLength="133" x="589.5" y="621.7891">pageFormat: PageFormat</text><text fill="#000000" font-family="sans-serif" font-size="11" lengthAdjust="spacing" textLength="166" x="589.5" y="634.7441">records: List&lt;ReadingRecord&gt;</text><text fill="#000000" font-family="sans-serif" font-size="11" lengthAdjust="spacing" textLength="141" x="589.5" y="647.6992">notes: List&lt;ReadingNote&gt;</text><text fill="#000000" font-family="sans-serif" font-size="11" lengthAdjust="spacing" textLength="94" x="589.5" y="660.6543">archived: Boolean</text><line style="stroke:#A80036;stroke-width:1.5;" x1="584.5" x2="760.5" y1="666.9746" y2="666.9746"/><!--MD5=[d3df2aeae7cc1b024aec82b67c7cebc8]
class SearchBook--><rect codeLine="56" fill="#FEFECE" filter="url(#f1v8vhadbmdz81)" height="73.9102" id="SearchBook" style="stroke:#A80036;stroke-width:1.5;" width="219" x="206" y="395.6992"/><ellipse cx="278.25" cy="411.6992" fill="#ADD1B2" rx="11" ry="11" style="stroke:#A80036;stroke-width:1.0;"/><path d="M280.7231,417.8423 Q280.1421,418.1411 279.5029,418.2905 Q278.8638,418.4399 278.1582,418.4399 Q275.6514,418.4399 274.3315,416.7881 Q273.0117,415.1362 273.0117,412.0151 Q273.0117,408.8857 274.3315,407.2339 Q275.6514,405.582 278.1582,405.582 Q278.8638,405.582 279.5112,405.7314 Q280.1587,405.8809 280.7231,406.1797 L280.7231,408.9023 Q280.0923,408.3213 279.4988,408.0515 Q278.9053,407.7817 278.2744,407.7817 Q276.9297,407.7817 276.2449,408.8484 Q275.5601,409.915 275.5601,412.0151 Q275.5601,414.1069 276.2449,415.1736 Q276.9297,416.2402 278.2744,416.2402 Q278.9053,416.2402 279.4988,415.9705 Q280.0923,415.7007 280.7231,415.1196 Z " fill="#000000"/><text fill="#000000" font-family="sans-serif" font-size="12" lengthAdjust="spacing" textLength="66" x="298.75" y="416.2344">SearchBook</text><line style="stroke:#A80036;stroke-width:1.5;" x1="207" x2="424" y1="427.6992" y2="427.6992"/><line style="stroke:#A80036;stroke-width:1.5;" x1="207" x2="424" y1="435.6992" y2="435.6992"/><text fill="#000000" font-family="sans-serif" font-size="11" lengthAdjust="spacing" textLength="171" x="212" y="450.334">convertToWishBook(): WishBook</text><text fill="#000000" font-family="sans-serif" font-size="11" lengthAdjust="spacing" textLength="207" x="212" y="463.2891">convertToReadingBook(): ReadingBook</text><!--MD5=[3fc40b66c754f3a6831f7e3511da57d5]
class WishBook--><rect codeLine="67" fill="#FEFECE" filter="url(#f1v8vhadbmdz81)" height="60.9551" id="WishBook" style="stroke:#A80036;stroke-width:1.5;" width="219" x="7" y="588.1992"/><ellipse cx="85.25" cy="604.1992" fill="#ADD1B2" rx="11" ry="11" style="stroke:#A80036;stroke-width:1.0;"/><path d="M87.7231,610.3423 Q87.1421,610.6411 86.5029,610.7905 Q85.8638,610.9399 85.1582,610.9399 Q82.6514,610.9399 81.3315,609.2881 Q80.0117,607.6362 80.0117,604.5151 Q80.0117,601.3857 81.3315,599.7339 Q82.6514,598.082 85.1582,598.082 Q85.8638,598.082 86.5112,598.2314 Q87.1587,598.3809 87.7231,598.6797 L87.7231,601.4023 Q87.0923,600.8213 86.4988,600.5515 Q85.9053,600.2817 85.2744,600.2817 Q83.9297,600.2817 83.2449,601.3484 Q82.5601,602.415 82.5601,604.5151 Q82.5601,606.6069 83.2449,607.6736 Q83.9297,608.7402 85.2744,608.7402 Q85.9053,608.7402 86.4988,608.4705 Q87.0923,608.2007 87.7231,607.6196 Z " fill="#000000"/><text fill="#000000" font-family="sans-serif" font-size="12" lengthAdjust="spacing" textLength="54" x="105.75" y="608.7344">WishBook</text><line style="stroke:#A80036;stroke-width:1.5;" x1="8" x2="225" y1="620.1992" y2="620.1992"/><line style="stroke:#A80036;stroke-width:1.5;" x1="8" x2="225" y1="628.1992" y2="628.1992"/><text fill="#000000" font-family="sans-serif" font-size="11" lengthAdjust="spacing" textLength="207" x="13" y="642.834">convertToReadingBook(): ReadingBook</text><!--MD5=[5babcffbe4bfea33edb659417c1c255c]
reverse link Book to EditableBook--><path d="M246.96,310.2092 C228.55,326.6692 207.45,345.6892 188.5,363.1992 C177.22,373.6192 165.08,385.0692 154.05,395.5792 " fill="none" id="Book-backto-EditableBook" style="stroke:#A80036;stroke-width:1.0;"/><polygon fill="none" points="242.43,304.8692,262.02,296.7892,251.74,315.3192,242.43,304.8692" style="stroke:#A80036;stroke-width:1.0;"/><!--MD5=[a56a9a04284f648ded2920ffdc55bcf8]
reverse link TimeInfo to EditableBook--><path codeLine="49" d="M116.5,308.5592 C116.5,335.3792 116.5,369.9892 116.5,395.6792 " fill="none" id="TimeInfo-backto-EditableBook" style="stroke:#A80036;stroke-width:1.0;"/><polygon fill="#A80036" points="116.5,303.2992,112.5,312.2992,116.5,308.2992,120.5,312.2992,116.5,303.2992" style="stroke:#A80036;stroke-width:1.0;"/><!--MD5=[4974e75d3d0ddecab44f1d9aaf2b1ce3]
reverse link BookInfo to Book--><path codeLine="50" d="M295.5,174.7392 C295.5,196.0492 295.5,218.4892 295.5,235.6892 " fill="none" id="BookInfo-backto-Book" style="stroke:#A80036;stroke-width:1.0;"/><polygon fill="#A80036" points="295.5,169.6492,291.5,178.6492,295.5,174.6492,299.5,178.6492,295.5,169.6492" style="stroke:#A80036;stroke-width:1.0;"/><!--MD5=[cb4209bc9dd9f4ce39f3a7ef94f44ccc]
reverse link ReadingPlatform to ReadingBook--><path codeLine="51" d="M582.37,506.3992 C597.36,524.9092 613.24,544.5192 627.43,562.0392 " fill="none" id="ReadingPlatform-backto-ReadingBook" style="stroke:#A80036;stroke-width:1.0;"/><polygon fill="#A80036" points="578.98,502.2092,581.5298,511.7223,582.1243,506.0968,587.7499,506.6913,578.98,502.2092" style="stroke:#A80036;stroke-width:1.0;"/><!--MD5=[c4af0d1dc7e17ff484cd4e41a4796fb3]
reverse link PageFormat to ReadingBook--><path codeLine="52" d="M672.5,475.0692 C672.5,500.6892 672.5,533.9092 672.5,561.8492 " fill="none" id="PageFormat-backto-ReadingBook" style="stroke:#A80036;stroke-width:1.0;"/><polygon fill="#A80036" points="672.5,470.0492,668.5,479.0492,672.5,475.0492,676.5,479.0492,672.5,470.0492" style="stroke:#A80036;stroke-width:1.0;"/><!--MD5=[24ac16e67232b9d416107da430413947]
reverse link ReadingRecord to ReadingBook--><path codeLine="53" d="M786,480.3092 C765.47,505.1592 740.08,535.8992 718.52,561.9892 " fill="none" id="ReadingRecord-backto-ReadingBook" style="stroke:#A80036;stroke-width:1.0;"/><polygon fill="#A80036" points="789.25,476.3792,780.4346,480.7712,786.066,480.2343,786.6028,485.8657,789.25,476.3792" style="stroke:#A80036;stroke-width:1.0;"/><!--MD5=[b54ccfdad3242ffefe639c356a4d3658]
reverse link ReadingNote to ReadingBook--><path codeLine="54" d="M940.15,479.4292 C929.96,487.4492 919.13,495.3892 908.5,502.1992 C862.12,531.9092 806.98,559.2892 761.67,579.9192 " fill="none" id="ReadingNote-backto-ReadingBook" style="stroke:#A80036;stroke-width:1.0;"/><polygon fill="#A80036" points="944.18,476.2292,934.6467,478.7025,940.2673,479.3422,939.6276,484.9628,944.18,476.2292" style="stroke:#A80036;stroke-width:1.0;"/><!--MD5=[065ba78fa0287dfffa4c960972813732]
reverse link Book to SearchBook--><path d="M301.54,316.8492 C304.62,342.1792 308.29,372.4292 311.1,395.5292 " fill="none" id="Book-backto-SearchBook" style="stroke:#A80036;stroke-width:1.0;stroke-dasharray:7.0,7.0;"/><polygon fill="none" points="294.59,317.6892,299.12,296.9892,308.48,315.9992,294.59,317.6892" style="stroke:#A80036;stroke-width:1.0;"/><!--MD5=[d439660ae156e79b52f162cbe46e3056]
reverse link EditableBook to ReadingBook--><path d="M162.11,483.6692 C170.34,490.6692 179.26,497.1792 188.5,502.1992 C315.1,570.9292 482.12,599.1292 583.2,610.4292 " fill="none" id="EditableBook-backto-ReadingBook" style="stroke:#A80036;stroke-width:1.0;stroke-dasharray:7.0,7.0;"/><polygon fill="none" points="157.12,488.5792,147.23,469.8392,166.65,478.3292,157.12,488.5792" style="stroke:#A80036;stroke-width:1.0;"/><!--MD5=[2a722c9c09d89235b2e64596fe12a6e8]
reverse link EditableBook to WishBook--><path d="M116.5,490.0992 C116.5,522.4492 116.5,561.7292 116.5,588.0992 " fill="none" id="EditableBook-backto-WishBook" style="stroke:#A80036;stroke-width:1.0;stroke-dasharray:7.0,7.0;"/><polygon fill="none" points="109.5,490.0492,116.5,470.0492,123.5,490.0492,109.5,490.0492" style="stroke:#A80036;stroke-width:1.0;"/><!--MD5=[1222f985933dcbb7d50149319233294d]
@startuml
skinparam titleBorderRoundCorner 15
skinparam titleBorderThickness 2
skinparam titleBorderColor red
skinparam titleBackgroundColor Aqua-CadetBlue
title ReadKeeper Book Class Diagram
class BookInfo {
    title: String
    imageUrl: String
    author: String
    pages: Int
    rating: Double
    pubYear: Int
}
class TimeInfo {
    addedTime: Timestamp
    editedTime: Timestamp
}
enum ReadingPlatform {
    Paper
    PDF
    Apple_BOOK
    WECHAT
    KINDLE
    GOOGLE
    GENERAL
}
enum PageFormat {
    PAGE
    PERCENTAGE
}
class ReadingRecord {
    startPage: Int
    endPage: Int
    timestamp: Timestamp
}
class ReadingNote {
    note: String
    position: Int
    timestamp: Timestamp
}
interface EditableBook extends Book {
    timeInfo: TimeInfo
    category: String
}

interface Book {
    bookInfo: BookInfo
}
TimeInfo <- - EditableBook
BookInfo <- - Book
ReadingPlatform <- - ReadingBook
PageFormat <- - ReadingBook
ReadingRecord <- - ReadingBook
ReadingNote <- - ReadingBook

class SearchBook implements Book {
    {method} convertToWishBook(): WishBook
    {method} convertToReadingBook(): ReadingBook
}
class ReadingBook implements EditableBook {
    platform: ReadingPlatform
    pageFormat: PageFormat
    records: List<ReadingRecord>
    notes: List<ReadingNote>
    archived: Boolean
}
class WishBook implements EditableBook {
    {method} convertToReadingBook(): ReadingBook
}
@enduml

PlantUML version 1.2021.14(Sat Nov 13 00:46:50 CST 2021)
(GPL source distribution)
Java Runtime: OpenJDK Runtime Environment
JVM: OpenJDK 64-Bit Server VM
Default Encoding: UTF-8
Language: en
Country: US
--></g></svg>